<svg width="1495" height="833" viewBox="0 0 1495 833" fill="none" xmlns="http://www.w3.org/2000/svg">
<rect width="1495" height="833" fill="white"/>
<g filter="url(#filter0_d)">
<path d="M582.8 293.909V370.614C582.746 382.119 577.42 388.245 567.938 388.245C559.096 388.245 553.183 382.865 553.023 374.023H533.368C533.368 394.158 548.07 404.491 567.192 404.491C588.233 404.491 602.349 391.707 602.402 370.614V293.909H582.8ZM675.138 368.589C675.138 381.054 666.243 387.233 657.72 387.233C648.451 387.233 642.272 380.681 642.272 370.294V321.182H622.99V373.277C622.99 392.933 634.176 404.065 650.262 404.065C662.514 404.065 671.143 397.62 674.872 388.458H675.724V403H694.421V321.182H675.138V368.589ZM733.532 293.909H714.249V403H733.532V293.909ZM753.361 403H772.643V321.182H753.361V403ZM763.055 309.57C769.181 309.57 774.188 304.882 774.188 299.129C774.188 293.323 769.181 288.636 763.055 288.636C756.876 288.636 751.869 293.323 751.869 299.129C751.869 304.882 756.876 309.57 763.055 309.57ZM816.016 404.651C828.854 404.651 836.524 398.632 840.04 391.761H840.679V403H859.216V348.241C859.216 326.615 841.584 320.116 825.977 320.116C808.772 320.116 795.562 327.787 791.3 342.702L809.305 345.259C811.222 339.665 816.655 334.871 826.084 334.871C835.032 334.871 839.933 339.452 839.933 347.496V347.815C839.933 353.355 834.127 353.621 819.692 355.166C803.818 356.871 788.637 361.612 788.637 380.042C788.637 396.129 800.409 404.651 816.016 404.651ZM821.023 390.482C812.98 390.482 807.227 386.807 807.227 379.722C807.227 372.318 813.672 369.229 822.302 368.004C827.362 367.311 837.483 366.033 839.986 364.009V373.65C839.986 382.759 832.635 390.482 821.023 390.482ZM897.888 355.06C897.888 343.234 905.025 336.416 915.199 336.416C925.16 336.416 931.126 342.968 931.126 353.888V403H950.409V350.905C950.462 331.303 939.276 320.116 922.39 320.116C910.139 320.116 901.723 325.976 897.994 335.085H897.035V321.182H878.605V403H897.888V355.06Z" fill="url(#paint0_linear)"/>
</g>
<g filter="url(#filter1_d)">
<path d="M648.423 547.739C660.918 547.739 670.568 541.993 670.568 529.41V479.01H661.205V487.004H660.502C658.809 483.954 655.421 478.368 646.282 478.368C634.427 478.368 625.703 487.774 625.703 503.471C625.703 519.201 634.619 527.58 646.218 527.58C655.23 527.58 658.713 522.475 660.438 519.329H661.046V529.024C661.046 536.632 655.773 540.003 648.519 540.003C640.562 540.003 637.463 535.99 635.769 533.262L627.556 536.664C630.145 542.603 636.696 547.739 648.423 547.739ZM648.327 519.618C639.795 519.618 635.354 513.038 635.354 503.343C635.354 493.873 639.7 486.522 648.327 486.522C656.668 486.522 661.142 493.36 661.142 503.343C661.142 513.519 656.572 519.618 648.327 519.618ZM704.057 529.313C717.894 529.313 726.937 519.137 726.937 503.889C726.937 488.544 717.894 478.368 704.057 478.368C690.221 478.368 681.178 488.544 681.178 503.889C681.178 519.137 690.221 529.313 704.057 529.313ZM704.09 521.256C695.047 521.256 690.828 513.327 690.828 503.857C690.828 494.419 695.047 486.394 704.09 486.394C713.068 486.394 717.287 494.419 717.287 503.857C717.287 513.327 713.068 521.256 704.09 521.256ZM737.603 479.01V531.399C737.603 535.99 735.717 538.494 731.179 538.494C730.636 538.494 730.221 538.494 729.646 538.462V546.744H731.499C741.756 546.872 747.157 541.351 747.157 531.464V479.01H737.603ZM742.332 471.402C745.624 471.402 748.372 468.834 748.372 465.688C748.372 462.542 745.624 459.942 742.332 459.942C739.008 459.942 736.293 462.542 736.293 465.688C736.293 468.834 739.008 471.402 742.332 471.402ZM774.296 529.41C782.412 529.41 786.982 525.268 788.803 521.577H789.187V528.318H798.518V495.575C798.518 481.225 787.269 478.368 779.472 478.368C770.588 478.368 762.408 481.964 759.213 490.952L768.191 493.006C769.597 489.507 773.177 486.137 779.6 486.137C785.767 486.137 788.931 489.379 788.931 494.965V495.189C788.931 498.688 785.352 498.624 776.532 499.651C767.233 500.743 757.71 503.183 757.71 514.386C757.71 524.081 764.965 529.41 774.296 529.41ZM776.372 521.705C770.972 521.705 767.073 519.265 767.073 514.514C767.073 509.378 771.611 507.548 777.14 506.81C780.239 506.393 787.589 505.558 788.962 504.178V510.534C788.962 516.376 784.33 521.705 776.372 521.705ZM820.798 499.041C820.798 491.177 825.592 486.682 832.238 486.682C838.725 486.682 842.655 490.952 842.655 498.111V528.318H852.21V496.955C852.21 484.756 845.532 478.368 835.498 478.368C828.116 478.368 823.291 481.803 821.022 487.036H820.415V479.01H811.243V528.318H820.798V499.041ZM865.024 528.318H874.579V479.01H865.024V528.318ZM869.85 471.402C873.141 471.402 875.889 468.834 875.889 465.688C875.889 462.542 873.141 459.942 869.85 459.942C866.526 459.942 863.81 462.542 863.81 465.688C863.81 468.834 866.526 471.402 869.85 471.402Z" fill="url(#paint1_linear)"/>
<path d="M655.041 472.192C655.041 464.431 652.751 456.845 648.459 450.392C644.167 443.94 638.066 438.91 630.929 435.941C623.792 432.971 615.938 432.194 608.361 433.708C600.784 435.222 593.825 438.959 588.362 444.446C582.899 449.934 579.179 456.926 577.672 464.537C576.165 472.149 576.939 480.038 579.895 487.208C582.851 494.378 587.858 500.506 594.281 504.818C600.704 509.129 608.256 511.43 615.982 511.43" stroke="url(#paint2_linear)" stroke-width="13" stroke-linejoin="round"/>
<path d="M868.635 544.212C868.635 549.124 870.085 553.925 872.801 558.009C875.518 562.093 879.379 565.277 883.896 567.156C888.413 569.035 893.384 569.527 898.179 568.57C902.975 567.611 907.38 565.246 910.838 561.773C914.295 558.299 916.649 553.875 917.603 549.057C918.557 544.24 918.067 539.246 916.196 534.708C914.325 530.171 911.156 526.291 907.091 523.563C903.026 520.834 898.247 519.378 893.357 519.378" stroke="url(#paint3_linear)" stroke-width="13" stroke-linejoin="round"/>
</g>
<circle cx="1019" cy="559" r="99" fill="url(#paint4_linear)"/>
<circle cx="370.5" cy="391.5" r="27.5" fill="#FF7474"/>
<circle cx="531.5" cy="543.5" r="7.5" stroke="#FF7474" stroke-width="2"/>
<circle cx="1182.5" cy="343.5" r="6.5" stroke="#74FF92" stroke-width="2"/>
<circle cx="505.5" cy="260.5" r="4.5" stroke="#FFE974" stroke-width="2"/>
<circle cx="913" cy="307" r="6" stroke="#DB74FF" stroke-width="2"/>
<circle cx="1174.5" cy="145.5" r="7.5" stroke="#8774FF" stroke-width="2"/>
<circle cx="201" cy="677" r="99" fill="url(#paint5_linear)"/>
<circle cx="1340" cy="92" r="53" fill="url(#paint6_linear)"/>
<circle cx="521" cy="288" r="67" fill="url(#paint7_linear)"/>
<path d="M745.862 685.433C743.004 685.584 739.46 686.152 736.833 686.885C733.157 687.91 729.99 689.259 726.686 691.2C723.645 692.986 720.35 695.613 717.986 698.133C714.55 701.784 712.078 705.54 710.08 710.127C708.163 714.526 706.997 719.565 706.64 724.955C706.612 725.393 706.565 726.036 706.541 726.384C706.504 726.826 706.504 727.211 706.541 727.653C706.57 728.006 706.612 728.64 706.64 729.068C706.758 730.835 707.049 733.265 707.326 734.731C708.243 739.615 709.596 743.403 712.022 747.84C713.051 749.729 713.61 750.608 714.771 752.168C718.799 757.573 724.138 761.954 730.074 764.722C731.846 765.549 732.622 765.864 734.723 766.607C736.979 767.406 738.412 767.787 740.621 768.167C743.361 768.642 743.732 768.665 748.024 768.665C752.305 768.665 752.747 768.637 755.544 768.148C757.019 767.89 758.067 767.636 759.045 767.302C759.445 767.166 760.46 766.823 761.301 766.536C762.142 766.25 763.176 765.878 763.599 765.704C767.012 764.323 770.118 762.574 772.985 760.426C775.345 758.659 777.145 756.962 779.377 754.401C783.104 750.129 786.061 744.677 787.663 739.102C788.585 735.892 789.111 732.819 789.36 729.138C789.388 728.725 789.431 728.081 789.459 727.71C789.496 727.221 789.496 726.835 789.459 726.3C789.426 725.895 789.384 725.261 789.355 724.885C789.191 722.474 789.12 721.91 788.392 717.365C788.082 715.414 787.118 712.402 785.995 709.845C785.624 709.004 784.651 707.02 784.284 706.367C783.081 704.214 781.793 702.301 780.872 701.291C780.674 701.07 780.289 700.628 780.021 700.304C777.314 697.066 774.546 694.551 771.27 692.342C770.353 691.726 769.742 691.369 767.848 690.345C763.355 687.915 758.349 686.331 753.217 685.71C751.314 685.48 750.698 685.447 748.423 685.433C747.196 685.424 746.045 685.424 745.862 685.433ZM750.139 691.562C751.798 691.67 752.794 691.802 752.794 691.919C752.794 691.99 752.705 692.018 751.643 692.286C749.631 692.784 746.637 693.747 744.818 694.471C741.744 695.698 739.911 696.563 737.228 698.057C732.448 700.713 728.368 703.824 725.012 707.382C722.78 709.742 721.553 711.274 719.861 713.816C717.821 716.876 716.073 720.467 714.658 724.485C714.198 725.792 713.436 728.499 713.051 730.187C712.877 730.948 712.727 731.418 712.651 731.418C712.628 731.418 712.586 731.362 712.562 731.296C712.534 731.221 712.515 729.557 712.515 726.882C712.515 722.117 712.501 722.366 712.844 720.537C713.582 716.594 715.086 712.665 717.206 709.14C719.748 704.915 722.714 701.643 726.808 698.556C732.062 694.598 738.788 692.07 745.274 691.614C745.674 691.585 746.087 691.553 746.191 691.543C746.675 691.506 749.471 691.52 750.139 691.562ZM766.264 696.873C766.448 696.896 766.715 696.962 766.866 697.014C767.341 697.193 768.765 698.184 770.24 699.355C772.271 700.971 773.883 702.551 775.702 704.717C776.858 706.094 777.131 706.442 777.699 707.283C779.542 710.005 780.773 712.421 781.868 715.457C782.122 716.162 782.174 716.42 782.061 716.51C782.028 716.538 781.497 716.726 780.877 716.933C777.765 717.971 775.401 719.08 772.393 720.928C769.813 722.507 766.922 724.81 764.615 727.117C762.391 729.341 760.215 732.095 758.838 734.421C756.22 738.844 754.745 743.112 754.044 748.291C753.908 749.287 753.814 750.307 753.711 751.98C753.668 752.624 753.626 753.207 753.612 753.264C753.598 753.325 753.621 753.799 753.659 754.321C753.696 754.843 753.762 755.736 753.805 756.304C753.913 757.78 754.101 759.289 754.345 760.581C754.401 760.863 754.477 761.272 754.519 761.489C754.622 762.038 754.646 762.02 753.499 762.198C751.661 762.48 750.853 762.532 748.047 762.532C745.81 762.532 744.649 762.485 743.535 762.339C741.237 762.048 739.366 761.615 737.308 760.91C735.089 760.149 733.985 759.693 732.161 758.791C730.85 758.142 729.811 757.541 728.448 756.633C725.421 754.622 722.761 752.258 720.566 749.63C719.405 748.239 717.788 745.955 717.685 745.56C717.652 745.438 717.638 743.925 717.652 740.968L717.666 736.564L717.817 735.601C718.211 733.035 718.681 731.009 719.471 728.433C720.43 725.313 721.99 721.806 723.574 719.221C724.603 717.539 725.548 716.19 726.709 714.738C727.729 713.464 728.472 712.641 729.788 711.321C732.847 708.261 736.41 705.606 740.457 703.382C745.434 700.647 750.327 698.805 755.379 697.771C757.494 697.338 760.323 696.99 762.594 696.878C763.67 696.826 765.869 696.821 766.264 696.873ZM783.49 722.803C783.518 722.883 783.532 724.42 783.518 727.254C783.504 731.474 783.504 731.597 783.4 732.24C782.653 736.884 781.027 741.302 778.63 745.189C777.384 747.205 776.332 748.625 774.673 750.523C772.28 753.264 768.986 755.943 765.681 757.837C763.806 758.908 760.817 760.276 760.338 760.276C760.121 760.276 760.065 760.163 759.919 759.425C759.609 757.884 759.609 757.912 759.609 753.522C759.609 749.113 759.604 749.203 759.915 747.558C760.591 743.99 762.058 740.475 764.281 737.105C764.765 736.372 765.926 734.825 766.574 734.05C768.342 731.944 770.87 729.613 773.404 727.757C776.017 725.839 778.888 724.274 781.746 723.202C783.382 722.591 783.405 722.587 783.49 722.803Z" fill="#4542F4"/>
<path d="M1453.52 20.4854C1452.21 20.5542 1450.59 20.8144 1449.39 21.1498C1447.71 21.6185 1446.26 22.2355 1444.75 23.1235C1443.36 23.9405 1441.85 25.1423 1440.77 26.2947C1439.2 27.9652 1438.07 29.6831 1437.15 31.7815C1436.28 33.7939 1435.74 36.0987 1435.58 38.5647C1435.57 38.7647 1435.55 39.0592 1435.53 39.2183C1435.52 39.4204 1435.52 39.5967 1435.53 39.7988C1435.55 39.9601 1435.57 40.2503 1435.58 40.446C1435.63 41.2544 1435.77 42.3659 1435.89 43.0367C1436.31 45.2706 1436.93 47.0035 1438.04 49.0331C1438.51 49.8974 1438.77 50.2994 1439.3 51.0132C1441.14 53.4857 1443.58 55.4895 1446.3 56.7559C1447.11 57.1343 1447.47 57.2783 1448.43 57.618C1449.46 57.9835 1450.11 58.1577 1451.12 58.3318C1452.38 58.549 1452.55 58.5597 1454.51 58.5597C1456.47 58.5597 1456.67 58.5468 1457.95 58.3232C1458.63 58.205 1459.11 58.0889 1459.55 57.9362C1459.74 57.8739 1460.2 57.7169 1460.58 57.5858C1460.97 57.4546 1461.44 57.2848 1461.64 57.2052C1463.2 56.5731 1464.62 55.7733 1465.93 54.7908C1467.01 53.9824 1467.83 53.2062 1468.85 52.0345C1470.56 50.0801 1471.91 47.5861 1472.64 45.0362C1473.07 43.5678 1473.31 42.1617 1473.42 40.4782C1473.43 40.289 1473.45 39.9945 1473.47 39.8246C1473.48 39.601 1473.48 39.4247 1473.47 39.1796C1473.45 38.9947 1473.43 38.7045 1473.42 38.5325C1473.34 37.4295 1473.31 37.1715 1472.98 35.0925C1472.84 34.2002 1472.39 32.8221 1471.88 31.6525C1471.71 31.2676 1471.27 30.3603 1471.1 30.0615C1470.55 29.0768 1469.96 28.2018 1469.54 27.7395C1469.45 27.6385 1469.27 27.4364 1469.15 27.288C1467.91 25.8067 1466.64 24.6564 1465.14 23.6459C1464.73 23.3643 1464.45 23.2009 1463.58 22.7322C1461.52 21.6206 1459.23 20.8961 1456.89 20.6123C1456.02 20.5069 1455.73 20.4919 1454.69 20.4854C1454.13 20.4811 1453.61 20.4811 1453.52 20.4854ZM1455.48 23.289C1456.24 23.3385 1456.69 23.3987 1456.69 23.4524C1456.69 23.4847 1456.65 23.4976 1456.17 23.6201C1455.25 23.848 1453.88 24.2888 1453.04 24.6199C1451.64 25.181 1450.8 25.5766 1449.57 26.2603C1447.39 27.4751 1445.52 28.8983 1443.98 30.5259C1442.96 31.6052 1442.4 32.3061 1441.63 33.4692C1440.69 34.8689 1439.9 36.5115 1439.25 38.3497C1439.04 38.9474 1438.69 40.1858 1438.51 40.9577C1438.43 41.306 1438.36 41.521 1438.33 41.521C1438.32 41.521 1438.3 41.4952 1438.29 41.4651C1438.28 41.4307 1438.27 40.6696 1438.27 39.4462C1438.27 37.2661 1438.26 37.3801 1438.42 36.5437C1438.76 34.7399 1439.44 32.9425 1440.41 31.33C1441.58 29.3971 1442.93 27.9007 1444.81 26.4882C1447.21 24.6779 1450.29 23.5212 1453.25 23.3127C1453.44 23.2998 1453.62 23.2847 1453.67 23.2804C1453.89 23.2632 1455.17 23.2697 1455.48 23.289ZM1462.85 25.7185C1462.94 25.7293 1463.06 25.7594 1463.13 25.783C1463.35 25.8647 1464 26.3184 1464.67 26.8537C1465.6 27.5933 1466.34 28.3157 1467.17 29.3069C1467.7 29.9368 1467.83 30.0959 1468.09 30.4807C1468.93 31.7256 1469.49 32.8307 1469.99 34.2196C1470.11 34.5421 1470.13 34.6603 1470.08 34.7012C1470.07 34.7141 1469.82 34.8001 1469.54 34.8947C1468.12 35.3698 1467.03 35.8772 1465.66 36.7222C1464.48 37.4446 1463.16 38.4981 1462.1 39.5537C1461.08 40.5707 1460.09 41.8306 1459.46 42.8948C1458.26 44.918 1457.59 46.8702 1457.26 49.2395C1457.2 49.6953 1457.16 50.1618 1457.11 50.9272C1457.09 51.2218 1457.07 51.4884 1457.07 51.5142C1457.06 51.5421 1457.07 51.7593 1457.09 51.9979C1457.11 52.2366 1457.14 52.6451 1457.16 52.9052C1457.2 53.5803 1457.29 54.2705 1457.4 54.8617C1457.43 54.9907 1457.46 55.1778 1457.48 55.2767C1457.53 55.5282 1457.54 55.5196 1457.02 55.6013C1456.17 55.7303 1455.81 55.754 1454.52 55.754C1453.5 55.754 1452.97 55.7325 1452.46 55.6658C1451.41 55.5325 1450.55 55.3347 1449.61 55.0122C1448.59 54.6639 1448.09 54.4554 1447.25 54.0426C1446.65 53.7459 1446.18 53.4707 1445.56 53.0557C1444.17 52.1355 1442.95 51.0541 1441.95 49.8522C1441.42 49.2158 1440.68 48.1709 1440.63 47.9903C1440.62 47.9344 1440.61 47.2421 1440.62 45.8898L1440.62 43.8752L1440.69 43.4345C1440.87 42.2606 1441.09 41.3339 1441.45 40.1557C1441.89 38.7281 1442.6 37.1242 1443.33 35.9417C1443.8 35.172 1444.23 34.555 1444.76 33.8906C1445.23 33.308 1445.57 32.9317 1446.17 32.3276C1447.57 30.9279 1449.2 29.7132 1451.05 28.6962C1453.33 27.445 1455.56 26.6022 1457.88 26.1292C1458.84 25.9314 1460.14 25.7723 1461.18 25.7207C1461.67 25.697 1462.67 25.6949 1462.85 25.7185ZM1470.73 37.58C1470.75 37.6166 1470.75 38.3196 1470.75 39.6161C1470.74 41.5468 1470.74 41.6027 1470.69 41.8972C1470.35 44.0214 1469.61 46.0424 1468.51 47.8205C1467.94 48.7428 1467.46 49.3921 1466.7 50.2607C1465.61 51.5142 1464.1 52.7397 1462.59 53.6061C1461.73 54.0963 1460.36 54.722 1460.14 54.722C1460.04 54.722 1460.02 54.6704 1459.95 54.3328C1459.81 53.6276 1459.81 53.6405 1459.81 51.6324C1459.81 49.6157 1459.81 49.6566 1459.95 48.9041C1460.26 47.2722 1460.93 45.664 1461.95 44.1225C1462.17 43.7871 1462.7 43.0797 1463 42.725C1463.81 41.7618 1464.96 40.6954 1466.12 39.8461C1467.32 38.9689 1468.63 38.253 1469.94 37.7628C1470.69 37.4833 1470.7 37.4811 1470.73 37.58Z" fill="black" fill-opacity="0.1"/>
<path d="M665.703 796.364H662.146V816H665.703V796.364ZM676.383 807.371C676.383 805.242 677.668 804.015 679.499 804.015C681.292 804.015 682.366 805.194 682.366 807.16V816H685.837V806.623C685.846 803.094 683.833 801.081 680.793 801.081C678.588 801.081 677.073 802.136 676.402 803.775H676.229V801.273H672.912V816H676.383V807.371ZM700.229 801.273H697.324V797.744H693.853V801.273H691.763V803.957H693.853V812.146C693.834 814.917 695.847 816.278 698.455 816.201C699.443 816.173 700.124 815.981 700.498 815.856L699.913 813.143C699.721 813.191 699.328 813.277 698.896 813.277C698.024 813.277 697.324 812.97 697.324 811.57V803.957H700.229V801.273ZM713.004 816.288C716.436 816.288 718.795 814.61 719.408 812.05L716.168 811.685C715.698 812.932 714.547 813.584 713.052 813.584C710.808 813.584 709.322 812.107 709.293 809.586H719.552V808.521C719.552 803.353 716.446 801.081 712.821 801.081C708.603 801.081 705.851 804.178 705.851 808.723C705.851 813.344 708.564 816.288 713.004 816.288ZM709.303 807.246C709.408 805.367 710.798 803.785 712.869 803.785C714.864 803.785 716.206 805.242 716.225 807.246H709.303ZM725.999 816H729.469V807.342C729.469 805.472 730.879 804.149 732.787 804.149C733.372 804.149 734.101 804.255 734.398 804.35V801.158C734.081 801.1 733.535 801.062 733.151 801.062C731.464 801.062 730.054 802.021 729.517 803.727H729.364V801.273H725.999V816ZM744.162 816.297C746.472 816.297 747.853 815.214 748.486 813.977H748.601V816H751.937V806.143C751.937 802.251 748.764 801.081 745.955 801.081C742.858 801.081 740.48 802.462 739.713 805.146L742.953 805.607C743.299 804.6 744.277 803.737 745.974 803.737C747.585 803.737 748.467 804.561 748.467 806.009V806.067C748.467 807.064 747.422 807.112 744.823 807.39C741.966 807.697 739.233 808.55 739.233 811.868C739.233 814.763 741.352 816.297 744.162 816.297ZM745.063 813.747C743.615 813.747 742.58 813.085 742.58 811.81C742.58 810.477 743.74 809.921 745.293 809.701C746.204 809.576 748.026 809.346 748.476 808.982V810.717C748.476 812.357 747.153 813.747 745.063 813.747ZM761.613 816L763.233 811.158H770.616L772.246 816H776.043L769.12 796.364H764.729L757.816 816H761.613ZM764.192 808.301L766.848 800.391H767.001L769.657 808.301H764.192ZM781.986 821.523H785.457V813.68H785.6C786.147 814.754 787.288 816.259 789.819 816.259C793.29 816.259 795.888 813.507 795.888 808.656C795.888 803.746 793.213 801.081 789.809 801.081C787.211 801.081 786.128 802.644 785.6 803.708H785.399V801.273H781.986V821.523ZM785.389 808.636C785.389 805.779 786.617 803.929 788.851 803.929C791.161 803.929 792.35 805.894 792.35 808.636C792.35 811.398 791.142 813.411 788.851 813.411C786.636 813.411 785.389 811.494 785.389 808.636ZM802.371 821.523H805.842V813.68H805.985C806.532 814.754 807.673 816.259 810.204 816.259C813.675 816.259 816.273 813.507 816.273 808.656C816.273 803.746 813.598 801.081 810.194 801.081C807.596 801.081 806.513 802.644 805.985 803.708H805.784V801.273H802.371V821.523ZM805.774 808.636C805.774 805.779 807.002 803.929 809.236 803.929C811.546 803.929 812.735 805.894 812.735 808.636C812.735 811.398 811.527 813.411 809.236 813.411C807.021 813.411 805.774 811.494 805.774 808.636ZM834.396 805.165C833.916 802.673 831.922 801.081 828.47 801.081C824.923 801.081 822.506 802.826 822.516 805.549C822.506 807.697 823.829 809.116 826.658 809.701L829.17 810.228C830.522 810.525 831.155 811.072 831.155 811.906C831.155 812.913 830.062 813.67 828.413 813.67C826.821 813.67 825.785 812.98 825.488 811.657L822.104 811.983C822.535 814.686 824.807 816.288 828.422 816.288C832.104 816.288 834.702 814.38 834.712 811.589C834.702 809.49 833.35 808.205 830.57 807.601L828.058 807.064C826.562 806.728 825.968 806.211 825.977 805.357C825.968 804.36 827.07 803.67 828.518 803.67C830.119 803.67 830.963 804.542 831.231 805.511L834.396 805.165Z" fill="#4542F4"/>
<defs>
<filter id="filter0_d" x="521.368" y="276.636" width="441.041" height="140.016" filterUnits="userSpaceOnUse" color-interpolation-filters="sRGB">
<feFlood flood-opacity="0" result="BackgroundImageFix"/>
<feColorMatrix in="SourceAlpha" type="matrix" values="0 0 0 0 0 0 0 0 0 0 0 0 0 0 0 0 0 0 127 0"/>
<feOffset/>
<feGaussianBlur stdDeviation="6"/>
<feColorMatrix type="matrix" values="0 0 0 0 0 0 0 0 0 0 0 0 0 0 0 0 0 0 0.25 0"/>
<feBlend mode="normal" in2="BackgroundImageFix" result="effect1_dropShadow"/>
<feBlend mode="normal" in="SourceGraphic" in2="effect1_dropShadow" result="shape"/>
</filter>
<filter id="filter1_d" x="558" y="418" width="379" height="174" filterUnits="userSpaceOnUse" color-interpolation-filters="sRGB">
<feFlood flood-opacity="0" result="BackgroundImageFix"/>
<feColorMatrix in="SourceAlpha" type="matrix" values="0 0 0 0 0 0 0 0 0 0 0 0 0 0 0 0 0 0 127 0"/>
<feOffset dy="4"/>
<feGaussianBlur stdDeviation="6"/>
<feColorMatrix type="matrix" values="0 0 0 0 0 0 0 0 0 0 0 0 0 0 0 0 0 0 0.25 0"/>
<feBlend mode="normal" in2="BackgroundImageFix" result="effect1_dropShadow"/>
<feBlend mode="normal" in="SourceGraphic" in2="effect1_dropShadow" result="shape"/>
</filter>
<linearGradient id="paint0_linear" x1="755.327" y1="295.331" x2="755.057" y2="528.11" gradientUnits="userSpaceOnUse">
<stop stop-color="#333333"/>
<stop offset="1" stop-color="#050505"/>
</linearGradient>
<linearGradient id="paint1_linear" x1="750.796" y1="459.942" x2="750.796" y2="547.739" gradientUnits="userSpaceOnUse">
<stop stop-color="#333333"/>
<stop offset="1"/>
</linearGradient>
<linearGradient id="paint2_linear" x1="615.982" y1="432.954" x2="615.982" y2="511.43" gradientUnits="userSpaceOnUse">
<stop stop-color="#333333"/>
<stop offset="1"/>
</linearGradient>
<linearGradient id="paint3_linear" x1="893.357" y1="519.378" x2="893.357" y2="569.046" gradientUnits="userSpaceOnUse">
<stop stop-color="#333333"/>
<stop offset="1"/>
</linearGradient>
<linearGradient id="paint4_linear" x1="1024.5" y1="518.5" x2="927" y2="612" gradientUnits="userSpaceOnUse">
<stop stop-color="#725CFD"/>
<stop offset="1" stop-color="#342498"/>
</linearGradient>
<linearGradient id="paint5_linear" x1="201" y1="578" x2="201" y2="776" gradientUnits="userSpaceOnUse">
<stop stop-color="#5F80F5"/>
<stop offset="0.917309" stop-color="#1D399F"/>
</linearGradient>
<linearGradient id="paint6_linear" x1="1294" y1="59" x2="1352" y2="187" gradientUnits="userSpaceOnUse">
<stop stop-color="#6BF979"/>
<stop offset="1" stop-color="#6BF979" stop-opacity="0"/>
<stop offset="1" stop-color="#51D05D"/>
</linearGradient>
<linearGradient id="paint7_linear" x1="534" y1="280" x2="567" y2="360.5" gradientUnits="userSpaceOnUse">
<stop stop-color="#F43A3A"/>
<stop offset="0.807145" stop-color="#B12929"/>
</linearGradient>
</defs>
</svg>
